<?xml version="1.0" encoding="UTF-8" standalone="no"?>
<!-- Created with Inkscape (http://www.inkscape.org/) -->

<svg
   width="138mm"
   height="60mm"
   viewBox="0 0 138 60"
   version="1.1"
   id="svg5"
   inkscape:version="1.1.1 (3bf5ae0d25, 2021-09-20)"
   sodipodi:docname="qrpc_logo.svg"
   inkscape:export-filename="C:\Users\Masato Shimizu\Pictures\qrpc_logo.png"
   inkscape:export-xdpi="171.04378"
   inkscape:export-ydpi="171.04378"
   xmlns:inkscape="http://www.inkscape.org/namespaces/inkscape"
   xmlns:sodipodi="http://sodipodi.sourceforge.net/DTD/sodipodi-0.dtd"
   xmlns:xlink="http://www.w3.org/1999/xlink"
   xmlns="http://www.w3.org/2000/svg"
   xmlns:svg="http://www.w3.org/2000/svg">
  <sodipodi:namedview
     id="namedview7"
     pagecolor="#ffffff"
     bordercolor="#666666"
     borderopacity="1.0"
     inkscape:pageshadow="2"
     inkscape:pageopacity="0.0"
     inkscape:pagecheckerboard="0"
     inkscape:document-units="mm"
     showgrid="false"
     inkscape:zoom="1.2810466"
     inkscape:cx="224.03557"
     inkscape:cy="115.92084"
     inkscape:window-width="1920"
     inkscape:window-height="1009"
     inkscape:window-x="-8"
     inkscape:window-y="-8"
     inkscape:window-maximized="1"
     inkscape:current-layer="layer1"
     showguides="false"
     height="100mm" />
  <defs
     id="defs2">
    <linearGradient
       inkscape:collect="always"
       id="linearGradient63848">
      <stop
         style="stop-color:#5d0e4a;stop-opacity:0.50196081"
         offset="0"
         id="stop63844" />
      <stop
         style="stop-color:#5d264a;stop-opacity:0.63529414"
         offset="1"
         id="stop63846" />
    </linearGradient>
    <linearGradient
       inkscape:collect="always"
       xlink:href="#linearGradient63848"
       id="linearGradient63850"
       x1="-3.7960896"
       y1="34.889748"
       x2="141.10896"
       y2="34.889748"
       gradientUnits="userSpaceOnUse" />
  </defs>
  <g
     inkscape:label="Layer 1"
     inkscape:groupmode="layer"
     id="layer1">
    <rect
       style="fill:url(#linearGradient63850);fill-opacity:1;stroke-width:0.855295;stroke-linecap:round;stroke-linejoin:round;stroke-miterlimit:4;stroke-dasharray:none;paint-order:markers stroke fill"
       id="rect63540"
       width="145.16736"
       height="68.640503"
       x="-3.2129583"
       y="-3.5050471" />
    <g
       aria-label="qRPC
"
       transform="rotate(-90,-63.896985,-33.062163)"
       id="text1112"
       style="font-size:48.1158px;line-height:1.25;writing-mode:tb-rl;stroke-width:1.289;fill:#ffffff;fill-opacity:0.96153849">
      <path
         id="path62303"
         style="font-family:'Yu Gothic';-inkscape-font-specification:'Yu Gothic';fill:#ffffff;fill-opacity:0.96153849"
         sodipodi:type="inkscape:offset"
         inkscape:radius="0.31454569"
         inkscape:original="M -130.32617 44.914062 C -133.95992 44.914062 -136.92805 45.728501 -139.23047 47.357422 C -141.76782 49.158632 -143.03516 51.57085 -143.03516 54.59375 C -143.03516 57.663638 -141.61815 60.052532 -138.7832 61.759766 L -151.16406 61.759766 L -151.16406 64.742188 L -118.39062 64.742188 L -118.39062 62.441406 L -122.15039 61.900391 C -119.25279 60.067855 -117.80273 57.585664 -117.80273 54.453125 C -117.80273 51.853118 -118.76685 49.699421 -120.69336 47.992188 C -122.99577 45.940374 -126.20689 44.914062 -130.32617 44.914062 z M -130.34961 47.992188 C -127.38936 47.992188 -125.01602 48.563655 -123.23047 49.707031 C -121.27264 50.960047 -120.29297 52.697772 -120.29297 54.921875 C -120.29297 57.772486 -121.9374 60.052532 -125.22656 61.759766 L -135.79883 61.759766 C -138.9157 59.989881 -140.47461 57.805085 -140.47461 55.205078 C -140.47461 53.231579 -139.71459 51.602701 -138.19531 50.318359 C -136.37844 48.767753 -133.76408 47.992188 -130.34961 47.992188 z "
         d="m -130.32617,44.599609 c -3.68075,0 -6.71983,0.82797 -9.08594,2.501953 -2.60513,1.849324 -3.9375,4.381373 -3.9375,7.492188 0,2.849112 1.2768,5.139289 3.63672,6.851562 h -11.45117 a 0.31457715,0.31457715 0 0 0 -0.31446,0.314454 v 2.982422 a 0.31457715,0.31457715 0 0 0 0.31446,0.314453 h 32.77344 a 0.31457715,0.31457715 0 0 0 0.31445,-0.314453 v -2.300782 a 0.31457715,0.31457715 0 0 0 -0.26953,-0.310547 l -3.03907,-0.4375 c 2.53526,-1.835088 3.89649,-4.257793 3.89649,-7.240234 0,-2.677266 -1.01103,-4.935682 -2.9961,-6.695313 -2.37196,-2.113798 -5.67027,-3.158203 -9.84179,-3.158203 z m -0.0234,3.707032 c 2.91977,0 5.23018,0.565232 6.94922,1.666015 1.88674,1.207521 2.79297,2.817483 2.79297,4.949219 0,2.711896 -1.52618,4.853881 -4.70899,6.523437 h -10.38671 c -3.01227,-1.729106 -4.45704,-3.784642 -4.45704,-6.240234 0,-1.892742 0.70933,-3.413403 2.16797,-4.646484 a 0.31457715,0.31457715 0 0 0 0.002,-0.002 c 1.74293,-1.487504 4.27378,-2.25 7.64062,-2.25 z" />
      <path
         id="path62305"
         style="font-family:'Yu Gothic';-inkscape-font-specification:'Yu Gothic';fill:#ffffff;fill-opacity:0.96153849"
         sodipodi:type="inkscape:offset"
         inkscape:radius="3.7500001e-07"
         inkscape:original="M -142.44922 74.599609 A 0.29211656 0.29211656 0 0 0 -142.74219 74.892578 L -142.74219 78.017578 A 0.29211656 0.29211656 0 0 0 -142.44922 78.310547 L -126.01367 78.310547 L -126.01367 85.675781 C -126.01367 86.446327 -125.99654 86.954143 -125.9707 87.349609 L -142.57617 95.326172 A 0.29211656 0.29211656 0 0 0 -142.74219 95.589844 L -142.74219 99.091797 A 0.29211656 0.29211656 0 0 0 -142.31836 99.353516 L -125.36328 90.933594 C -124.8177 93.152146 -123.86381 94.937155 -122.46484 96.228516 C -120.84538 97.749823 -118.79385 98.515625 -116.36914 98.515625 C -113.30566 98.515625 -110.94508 97.487838 -109.38867 95.439453 C -107.83226 93.391069 -107.07813 90.36485 -107.07812 86.380859 L -107.07812 74.892578 A 0.29211656 0.29211656 0 0 0 -107.37109 74.599609 L -142.44922 74.599609 z M -122.82031 78.310547 L -110.32031 78.310547 L -110.32031 86.146484 C -110.32031 89.012079 -110.7968 91.119605 -111.70117 92.46875 C -112.66288 93.903908 -114.19594 94.617188 -116.41797 94.617188 C -118.58411 94.617188 -120.14461 93.907722 -121.20508 92.474609 C -122.26554 91.041497 -122.82031 88.842321 -122.82031 85.863281 L -122.82031 78.310547 z "
         d="m -142.44922,74.599609 a 0.29211656,0.29211656 0 0 0 -0.29297,0.292969 v 3.125 a 0.29211656,0.29211656 0 0 0 0.29297,0.292969 h 16.43555 v 7.365234 c 0,0.770546 0.0171,1.278362 0.043,1.673828 l -16.60547,7.976563 a 0.29211656,0.29211656 0 0 0 -0.16602,0.263672 v 3.501953 a 0.29211656,0.29211656 0 0 0 0.42383,0.261719 l 16.95508,-8.419922 c 0.54558,2.218552 1.49947,4.003561 2.89844,5.294922 1.61946,1.521307 3.67099,2.287109 6.0957,2.287109 3.06348,0 5.42406,-1.027787 6.98047,-3.076172 1.55641,-2.048384 2.31054,-5.074603 2.31055,-9.058594 V 74.892578 a 0.29211656,0.29211656 0 0 0 -0.29297,-0.292969 z m 19.62891,3.710938 h 12.5 v 7.835937 c 0,2.865595 -0.47649,4.973121 -1.38086,6.322266 -0.96171,1.435158 -2.49477,2.148438 -4.7168,2.148438 -2.16614,0 -3.72664,-0.709466 -4.78711,-2.142579 -1.06046,-1.433112 -1.61523,-3.632288 -1.61523,-6.611328 z"
         transform="matrix(1,0,0,0.91109116,0,8.8361962)" />
      <path
         id="path62307"
         style="font-family:'Yu Gothic';-inkscape-font-specification:'Yu Gothic';fill:#ffffff;fill-opacity:0.96153849"
         sodipodi:type="inkscape:offset"
         inkscape:radius="0.14604487"
         inkscape:original="M -142.44922 107.08008 L -142.44922 110.25 L -126.77734 110.25 L -126.77734 118.09766 C -126.77734 121.74706 -126.00178 124.63745 -124.45117 126.76758 C -122.71262 129.13264 -120.21488 130.31445 -116.95703 130.31445 C -114.0751 130.31445 -111.8281 129.45336 -110.21484 127.73047 C -108.31966 125.70998 -107.37109 122.59217 -107.37109 118.37891 L -107.37109 107.08008 L -142.44922 107.08008 z M -124.16992 110.25 L -110.02734 110.25 L -110.02734 118.19141 C -110.02734 124.06491 -112.35209 127.00195 -117.00391 127.00195 C -121.78103 127.00195 -124.16992 123.97162 -124.16992 117.91016 L -124.16992 110.25 z "
         d="m -142.44922,106.93359 a 0.14605947,0.14605947 0 0 0 -0.14648,0.14649 V 110.25 a 0.14605947,0.14605947 0 0 0 0.14648,0.14648 h 15.52539 v 7.70118 c 0,3.67009 0.7815,6.59364 2.35547,8.75586 1.76434,2.40013 4.31816,3.60742 7.61133,3.60742 2.91102,0 5.2067,-0.87631 6.84961,-2.63086 1.92983,-2.05743 2.88281,-5.21599 2.88281,-9.45117 v -11.29883 a 0.14605947,0.14605947 0 0 0 -0.14648,-0.14649 z m 18.42578,3.46289 h 13.84961 v 7.79493 c 0,2.91748 -0.57769,5.08628 -1.71094,6.51757 -1.13324,1.4313 -2.82396,2.14649 -5.11914,2.14649 -2.35768,0 -4.0947,-0.73871 -5.25976,-2.2168 -1.16506,-1.47809 -1.75977,-3.71697 -1.75977,-6.72851 z" />
      <path
         d="m -116.46407,163.55804 -0.96326,-3.39472 q 7.94099,-2.19508 7.94099,-10.00548 0,-5.6919 -4.53435,-8.98452 -4.13495,-3.03738 -10.90123,-3.03738 -7.72954,0 -11.95847,3.90521 -3.50061,3.24156 -3.50061,8.11669 0,8.21879 8.08195,10.36282 l -1.15121,3.34367 q -9.67955,-3.2671 -9.67955,-13.75754 0,-7.27439 5.40363,-11.63904 4.91026,-3.98177 12.73377,-3.98177 9.02172,0 14.07293,5.13037 4.18194,4.23702 4.18194,10.49044 0,5.41112 -2.93675,9.03556 -2.51386,3.11395 -6.78978,4.41569 z"
         style="font-family:'Yu Gothic';-inkscape-font-specification:'Yu Gothic';stroke-width:1.34354;fill:#ffffff;fill-opacity:0.96153849"
         id="path62309" />
    </g>
    <rect
       style="fill:#f035f0;fill-opacity:1;stroke-width:0.746464;stroke-linecap:round;stroke-linejoin:round;stroke-miterlimit:4;stroke-dasharray:none;paint-order:markers stroke fill"
       id="rect5188"
       width="9.807703"
       height="10.286127"
       x="12.533121"
       y="-4.7823434"
       transform="rotate(45)" />
    <rect
       style="fill:#f035f0;fill-opacity:1;stroke-width:0.485877;stroke-linecap:round;stroke-linejoin:round;stroke-miterlimit:4;stroke-dasharray:none;paint-order:markers stroke fill"
       id="rect5188-6"
       width="6.3838787"
       height="6.6952872"
       x="29.138069"
       y="-17.879965"
       transform="rotate(45)"
       inkscape:transform-center-x="0.3043298"
       inkscape:transform-center-y="3.0257259e-06" />
    <path
       id="rect5360"
       style="fill:#fffffe;stroke-width:0.63035;stroke-linecap:round;stroke-linejoin:round;paint-order:markers stroke fill;fill-opacity:1"
       d="m 12.442091,7.8068273 -4.8604724,4.9651997 4.8604724,4.59089 h 5.072902 l -5.124034,-4.59089 5.124034,-4.9651997 z"
       sodipodi:nodetypes="ccccccc" />
    <path
       id="rect5360-0"
       style="fill:#fffffe;stroke-width:0.415925;stroke-linecap:round;stroke-linejoin:round;paint-order:markers stroke fill;fill-opacity:1"
       d="m 31.651913,9.432157 3.207097,3.27621 -3.207097,3.02921 h -3.347266 l 3.381004,-3.02921 -3.381004,-3.27621 z"
       sodipodi:nodetypes="ccccccc" />
    <rect
       style="fill:#fffffe;fill-opacity:1;stroke-width:1.20103;stroke-linecap:round;stroke-linejoin:round;stroke-miterlimit:4;stroke-dasharray:none;paint-order:markers stroke fill"
       id="rect8108"
       width="19.398745"
       height="0.65719622"
       x="12.286909"
       y="12.360943" />
  </g>
</svg>
